<svg width="500" height="500" viewBox="0 0 500 500" fill="none" xmlns="http://www.w3.org/2000/svg">
<g clip-path="url(#clip0_201_101)">
<path d="M451.528 386.528C438.135 374.588 426.409 360.9 416.667 345.833C406.02 325.039 399.645 302.325 397.917 279.028V210.417C398.009 173.828 384.736 138.465 360.594 110.972C336.451 83.4788 303.099 65.7481 266.806 61.1111V43.1944C266.806 38.2769 264.852 33.5607 261.375 30.0835C257.898 26.6063 253.181 24.6528 248.264 24.6528C243.346 24.6528 238.63 26.6063 235.153 30.0835C231.676 33.5607 229.722 38.2769 229.722 43.1944V61.3889C193.754 66.3601 160.805 84.198 136.98 111.599C113.154 138.999 100.066 174.106 100.139 210.417V279.028C98.4105 302.325 92.0352 325.039 81.3889 345.833C71.8178 360.866 60.2805 374.552 47.0833 386.528C45.6018 387.829 44.4144 389.431 43.6002 391.227C42.786 393.024 42.3636 394.972 42.3611 396.944V415.833C42.3611 419.517 43.8244 423.05 46.429 425.654C49.0337 428.259 52.5664 429.722 56.25 429.722H442.361C446.045 429.722 449.577 428.259 452.182 425.654C454.787 423.05 456.25 419.517 456.25 415.833V396.944C456.247 394.972 455.825 393.024 455.011 391.227C454.197 389.431 453.009 387.829 451.528 386.528ZM71.25 401.944C84.1694 389.458 95.5467 375.47 105.139 360.278C118.553 335.166 126.371 307.448 128.056 279.028V210.417C127.505 194.139 130.235 177.918 136.084 162.718C141.933 147.517 150.781 133.65 162.101 121.94C173.421 110.231 186.981 100.919 201.975 94.5594C216.968 88.1997 233.088 84.9223 249.375 84.9223C265.662 84.9223 281.782 88.1997 296.775 94.5594C311.769 100.919 325.329 110.231 336.649 121.94C347.969 133.65 356.817 147.517 362.666 162.718C368.515 177.918 371.245 194.139 370.694 210.417V279.028C372.379 307.448 380.197 335.166 393.611 360.278C403.203 375.47 414.581 389.458 427.5 401.944H71.25Z" fill="black"/>
<path d="M250 476.111C258.749 475.91 267.145 472.62 273.703 466.825C280.261 461.03 284.557 453.102 285.833 444.444H212.778C214.09 453.338 218.588 461.452 225.435 467.277C232.282 473.102 241.011 476.241 250 476.111Z" fill="black"/>
</g>
<defs>
<clipPath id="clip0_201_101">
<rect width="500" height="500" fill="white"/>
</clipPath>
</defs>
</svg>
